<?xml version="1.0" encoding="UTF-8" standalone="no"?>
<svg width="24" height="21" viewBox="0 0 16 14" version="1.1" xmlns="http://www.w3.org/2000/svg" xmlns:xlink="http://www.w3.org/1999/xlink">
    <!-- Generator: Sketch 3.6.1 (26313) - http://www.bohemiancoding.com/sketch -->
    <title>alert-white</title>
    <desc>Created with Sketch.</desc>
    <defs></defs>
    <g id="Page-1" stroke="none" stroke-width="1" fill="none" fill-rule="evenodd">
        <g id="alert-white" transform="translate(0.000000, -1.000000)" fill="#FFFFFF">
            <path d="M14.64,14.22 L0.5,14.22 C0.321905692,14.2189288 0.157825147,14.1232061 0.0692422653,13.9687011 C-0.0193406167,13.8141961 -0.0190519869,13.6242351 0.07,13.47 L7.14,1.23 C7.23608352,1.08330105 7.39963574,0.994912267 7.575,0.994912267 C7.75036426,0.994912267 7.91391648,1.08330105 8.01,1.23 L15.07,13.47 C15.159052,13.6242351 15.1593406,13.8141961 15.0707577,13.9687011 C14.9821749,14.1232061 14.8180943,14.2189288 14.64,14.22 L14.64,14.22 Z M1.37,13.22 L13.77,13.22 L7.57,2.48 L1.37,13.22 Z" id="Shape"></path>
            <path d="M7.57,10.18 C7.21101491,10.18 6.92,9.88898509 6.92,9.53 L6.92,5.8 C6.92,5.44101491 7.21101491,5.15 7.57,5.15 C7.92898509,5.15 8.22,5.44101491 8.22,5.8 L8.22,9.54 C8.21453668,9.8950738 7.92511583,10.180042 7.57,10.18 L7.57,10.18 Z" id="Shape"></path>
            <circle id="Oval" cx="7.57" cy="11.68" r="0.78"></circle>
        </g>
    </g>
</svg>