<svg xmlns="http://www.w3.org/2000/svg" width="23" height="24" viewBox="0 0 13.45 14.48"><title>annual-grey</title><path d="M18.92,7.63a1,1,0,0,0-.73-.31h-1V6.55a1.3,1.3,0,0,0-1.29-1.29h-.52a1.3,1.3,0,0,0-1.29,1.29v.78h-3.1V6.55A1.3,1.3,0,0,0,9.66,5.26H9.14A1.3,1.3,0,0,0,7.85,6.55v.78h-1a1,1,0,0,0-1,1V18.71a1,1,0,0,0,1,1H18.19a1,1,0,0,0,1-1V8.36A1,1,0,0,0,18.92,7.63ZM9.14,18.71H6.81V16.38H9.14Zm0-2.84H6.81V13.28H9.14Zm0-3.1H6.81V10.43H9.14ZM9,9.06a.25.25,0,0,1-.08-.18V6.55a.26.26,0,0,1,.26-.26h.52a.26.26,0,0,1,.26.26V8.88a.26.26,0,0,1-.26.26H9.14A.25.25,0,0,1,9,9.06Zm3.29,9.65H9.66V16.38h2.59Zm0-2.84H9.66V13.28h2.59Zm0-3.1H9.66V10.43h2.59Zm3.1,5.95H12.76V16.38h2.59Zm0-2.84H12.76V13.28h2.59Zm0-3.1H12.76V10.43h2.59Zm-.18-3.7a.25.25,0,0,1-.08-.18V6.55a.26.26,0,0,1,.26-.26h.52a.26.26,0,0,1,.26.26V8.88a.26.26,0,0,1-.26.26h-.52A.25.25,0,0,1,15.16,9.06Zm3,9.65H15.86V16.38h2.33Zm0-2.84H15.86V13.28h2.33Zm0-3.1H15.86V10.43h2.33Z" transform="translate(-5.78 -5.26)" style="fill:#1f1f1f"/></svg>