<svg xmlns="http://www.w3.org/2000/svg" width="13" height="18" viewBox="0 0 10.97 14.81"><title>backup-grey</title><path d="M15.89,9.46a18.4,18.4,0,0,0-4.21,3.62l-1.57-1.23a5.44,5.44,0,0,0-.88.76l2.86,2.91a.11.11,0,0,0,.08,0h0a.11.11,0,0,0,.08-.07A17.52,17.52,0,0,1,16.21,10a.11.11,0,0,0,0-.13,3,3,0,0,0-.34-.46Zm0,0" transform="translate(-7.01 -5.1)" style="fill:#1f1f1f"/><path d="M17.77,6.89c-4.33,0-5.06-1.64-5.07-1.66a.22.22,0,0,0-.2-.14h0a.22.22,0,0,0-.2.13s-.75,1.66-5.07,1.66A.22.22,0,0,0,7,7.11v7.37c0,3,5.18,5.32,5.4,5.41l.09,0,.09,0c.22-.1,5.4-2.4,5.4-5.41V7.11a.22.22,0,0,0-.22-.21Zm-1,7.15c0,2.36-4.05,4.16-4.23,4.24h-.14c-.17-.08-4.22-1.88-4.22-4.24V8.28a.17.17,0,0,1,.17-.17c3.38,0,4-1.29,4-1.3a.17.17,0,0,1,.16-.1h0a.17.17,0,0,1,.15.11s.58,1.3,4,1.3a.17.17,0,0,1,.17.17Zm0,0" transform="translate(-7.01 -5.1)" style="fill:#1f1f1f"/></svg>