<svg xmlns="http://www.w3.org/2000/svg" width="15" height="14" viewBox="0 0 13 11.48"><title>dl-green</title><path d="M10.88,8.87a7.24,7.24,0,0,0-.31-2.11H7.63A1.63,1.63,0,0,0,6,8.39V15C8.71,14.85,10.88,12.17,10.88,8.87Z" transform="translate(-6 -6.76)" style="fill:#9ccb3c"/><path d="M13.31,16.61h0V6.76H12.24A8.83,8.83,0,0,1,12.5,8.9c0,4.19-2.89,7.6-6.5,7.71v1.63H17.37A1.63,1.63,0,0,0,19,16.61H13.31Z" transform="translate(-6 -6.76)" style="fill:#9ccb3c"/><rect x="8.94" width="4.06" height="8.23" style="fill:#9ccb3c"/></svg>