<svg xmlns="http://www.w3.org/2000/svg" width="20" height="24" viewBox="0 0 11.42 13.55"><title>monthly-grey</title><path d="M13.38,7.92V6.87h.48a.57.57,0,0,0,0-1.14H11.14a.57.57,0,1,0,0,1.14h.48V7.92a5.71,5.71,0,1,0,1.76,0ZM12.5,18.13a4.57,4.57,0,1,1,4.57-4.57A4.57,4.57,0,0,1,12.5,18.13Z" transform="translate(-6.79 -5.72)" style="fill:#1f1f1f"/><path d="M13.07,13.33V10.63a.57.57,0,1,0-1.14,0v3a.35.35,0,0,0,.1.25l1.6,1.59a.57.57,0,1,0,.81-.81Z" transform="translate(-6.79 -5.72)" style="fill:#1f1f1f"/></svg>