<svg xmlns="http://www.w3.org/2000/svg" width="14" height="18" viewBox="0 0 10.86 13.79"><title>view-services-grey</title><path d="M17.51,8.84,14.65,6a.41.41,0,0,0-.31-.13H7.23a.44.44,0,0,0-.44.44V19.19a.44.44,0,0,0,.44.44h10a.44.44,0,0,0,.44-.44v-10A.41.41,0,0,0,17.51,8.84Zm-.76,9.91H7.67v-12h6.22V9.15a.44.44,0,0,0,.44.44h2.42Z" transform="translate(-6.78 -5.84)" style="fill:#1f1f1f"/><path d="M15.23,10.87h-6a.44.44,0,1,0,0,.89h6a.44.44,0,1,0,0-.89Z" transform="translate(-6.78 -5.84)" style="fill:#1f1f1f"/><path d="M15.23,12.79h-6a.44.44,0,0,0,0,.89h6a.44.44,0,0,0,0-.89Z" transform="translate(-6.78 -5.84)" style="fill:#1f1f1f"/><path d="M15.23,14.71h-6a.44.44,0,0,0,0,.89h6a.44.44,0,0,0,0-.89Z" transform="translate(-6.78 -5.84)" style="fill:#1f1f1f"/><path d="M15.23,16.63h-6a.44.44,0,1,0,0,.89h6a.44.44,0,1,0,0-.89Z" transform="translate(-6.78 -5.84)" style="fill:#1f1f1f"/></svg>